0
SECTION
2
HEADER
9
$INSUNITS
70
4
9
$ACADVER
1
AC1014
9
$HANDSEED
5
FFFF
0
ENDSEC
0
SECTION
2
TABLES
0
TABLE
2
VPORT
5
8
100
AcDbSymbolTable
0
ENDTAB
0
TABLE
2
LTYPE
5
5
100
AcDbSymbolTable
0
LTYPE
5
14
100
AcDbSymbolTableRecord
100
AcDbLinetypeTableRecord
2
BYBLOCK
70
0
0
LTYPE
5
15
100
AcDbSymbolTableRecord
100
AcDbLinetypeTableRecord
2
BYLAYER
70
0
0
ENDTAB
0
TABLE
2
LAYER
5
2
100
AcDbSymbolTable
70
2
0
LAYER
5
50
100
AcDbSymbolTableRecord
100
AcDbLayerTableRecord
2
0
70
0
6
CONTINUOUS
0
ENDTAB
0
TABLE
2
STYLE
5
3
100
AcDbSymbolTable
70
1
0
STYLE
5
11
100
AcDbSymbolTableRecord
100
AcDbTextStyleTableRecord
2
STANDARD
70
0
0
ENDTAB
0
TABLE
2
VIEW
5
6
100
AcDbSymbolTable
70
0
0
ENDTAB
0
TABLE
2
UCS
5
7
100
AcDbSymbolTable
70
0
0
ENDTAB
0
TABLE
2
APPID
5
9
100
AcDbSymbolTable
70
2
0
APPID
5
12
100
AcDbSymbolTableRecord
100
AcDbRegAppTableRecord
2
ACAD
70
0
0
ENDTAB
0
TABLE
2
DIMSTYLE
5
A
100
AcDbSymbolTable
70
1
0
ENDTAB
0
TABLE
2
BLOCK_RECORD
5
1
100
AcDbSymbolTable
70
1
0
BLOCK_RECORD
5
1F
100
AcDbSymbolTableRecord
100
AcDbBlockTableRecord
2
*MODEL_SPACE
0
BLOCK_RECORD
5
1B
100
AcDbSymbolTableRecord
100
AcDbBlockTableRecord
2
*PAPER_SPACE
0
ENDTAB
0
ENDSEC
0
SECTION
2
BLOCKS
0
BLOCK
5
20
100
AcDbEntity
100
AcDbBlockBegin
2
*MODEL_SPACE
0
ENDBLK
5
21
100
AcDbEntity
100
AcDbBlockEnd
0
BLOCK
5
1C
100
AcDbEntity
100
AcDbBlockBegin
2
*PAPER_SPACE
0
ENDBLK
5
1D
100
AcDbEntity
100
AcDbBlockEnd
0
ENDSEC
0
SECTION
2
ENTITIES
0
LWPOLYLINE
5
100
100
AcDbEntity
8
0
100
AcDbPolyline
90
4
70
1
43
0.0
10
-70
20
10.999999999999995
10
-70
20
-11.000000000000016
10
-60
20
-11.000000000000011
10
-60
20
10.999999999999993
0
CIRCLE
5
101
100
AcDbEntity
8
0
100
AcDbCircle
10
-57
20
17.499999999999993
30
0
40
2.0000000000000018
210
0
220
-0
230
1
0
CIRCLE
5
102
100
AcDbEntity
8
0
100
AcDbCircle
10
-57
20
-17.500000000000007
30
0
40
2.0000000000000018
210
0
220
-0
230
1
0
LWPOLYLINE
5
103
100
AcDbEntity
8
0
100
AcDbPolyline
90
4
70
1
43
0.0
10
70
20
-11.000000000000018
10
70
20
10.999999999999993
10
60
20
10.999999999999993
10
60
20
-11.000000000000011
0
CIRCLE
5
104
100
AcDbEntity
8
0
100
AcDbCircle
10
57
20
17.499999999999993
30
0
40
2.0000000000000018
210
0
220
-0
230
1
0
CIRCLE
5
105
100
AcDbEntity
8
0
100
AcDbCircle
10
57
20
-17.500000000000007
30
0
40
2.0000000000000018
210
0
220
-0
230
1
0
CIRCLE
5
106
100
AcDbEntity
8
0
100
AcDbCircle
10
0
20
35
30
0
40
2.5
210
0
220
-0
230
1
0
CIRCLE
5
107
100
AcDbEntity
8
0
100
AcDbCircle
10
-30.310889132455358
20
-17.499999999999996
30
0
40
2.5
210
0
220
-0
230
1
0
CIRCLE
5
108
100
AcDbEntity
8
0
100
AcDbCircle
10
-1.1102230246251565e-14
20
-35
30
0
40
2.5
210
0
220
-0
230
1
0
CIRCLE
5
109
100
AcDbEntity
8
0
100
AcDbCircle
10
0
20
0
30
0
40
12.5
210
0
220
-0
230
1
0
CIRCLE
5
110
100
AcDbEntity
8
0
100
AcDbCircle
10
30.310889132455365
20
17.499999999999986
30
0
40
2.5
210
0
220
-0
230
1
0
CIRCLE
5
111
100
AcDbEntity
8
0
100
AcDbCircle
10
-30.310889132455351
20
17.500000000000004
30
0
40
2.5
210
0
220
-0
230
1
0
CIRCLE
5
112
100
AcDbEntity
8
0
100
AcDbCircle
10
30.310889132455348
20
-17.500000000000014
30
0
40
2.5
210
0
220
-0
230
1
0
CIRCLE
5
113
100
AcDbEntity
8
0
100
AcDbCircle
10
-4.4667084974739852e-15
20
-55
30
0
40
7.5
210
0
220
-0
230
1
0
CIRCLE
5
114
100
AcDbEntity
8
0
100
AcDbCircle
10
-63.846893299841582
20
-58.524865094679811
30
0
40
2.5
210
0
220
0
230
1
0
CIRCLE
5
115
100
AcDbEntity
8
0
100
AcDbCircle
10
63.846893299841582
20
-58.524865094679811
30
0
40
2.5
210
0
220
0
230
1
0
CIRCLE
5
116
100
AcDbEntity
8
0
100
AcDbCircle
10
-44.5
20
40.97801161341215
30
0
40
2.5
210
0
220
0
230
1
0
CIRCLE
5
117
100
AcDbEntity
8
0
100
AcDbCircle
10
44.5
20
40.97801161341215
30
0
40
2.5
210
0
220
0
230
1
0
SPLINE
5
118
100
AcDbEntity
8
0
100
AcDbSpline
70
4
71
5
72
27
73
21
74
0
42
0.000000001
43
0.0000000001
44
0.0000000001
40
-0.20697531734262625
40
-0.20697531734262625
40
-0.20697531734262625
40
-0.20697531734262625
40
-0.20697531734262625
40
-0.20697531734262625
40
-0.20000000000000001
40
-0.18666666666666668
40
-0.17333333333333334
40
-0.16
40
-0.14666666666666667
40
-0.13333333333333333
40
-0.12000000000000001
40
-0.10666666666666667
40
-0.093333333333333338
40
-0.080000000000000002
40
-0.066666666666666666
40
-0.053333333333333337
40
-0.040000000000000001
40
-0.026666666666666668
40
-0.013333333333333334
40
0
40
0
40
0
40
0
40
0
40
0
41
1
41
1
41
1
41
1
41
1
41
1
41
1
41
1
41
1
41
1
41
1
41
1
41
1
41
1
41
1
41
1
41
1
41
1
41
1
41
1
41
1
10
83.555962615162571
20
68.617448116752769
30
0
10
83.015030249319409
20
68.266255795727858
30
0
10
81.43477437867061
20
67.251475558223092
30
0
10
78.791796625388486
20
65.614105950800351
30
0
10
75.044812538386537
20
63.465912685012057
30
0
10
70.129721175832799
20
61.018567844762771
30
0
10
64.554890168436671
20
58.726897539078536
30
0
10
58.834826215939529
20
56.825243233318076
30
0
10
52.98368124769997
20
55.264245355066215
30
0
10
47.046837766530636
20
53.992539599419274
30
0
10
41.107826387301138
20
52.974897154784259
30
0
10
35.264843072776976
20
52.18490575869577
30
0
10
29.612138443636262
20
51.601331803439301
30
0
10
24.218165913733323
20
51.202745491992417
30
0
10
19.108180352319252
20
50.963599451538222
30
0
10
14.237052541620642
20
50.847875453461306
30
0
10
9.5059052107023394
20
50.812910295433447
30
0
10
5.7422353359151943
20
50.817295791916528
30
0
10
2.8882858194787762
20
50.82502200133721
30
0
10
0.96603270110017259
20
50.830441890567684
30
0
10
0
20
50.833218850654866
30
0
0
SPLINE
5
119
100
AcDbEntity
8
0
100
AcDbSpline
70
4
71
5
72
27
73
21
74
0
42
0.000000001
43
0.0000000001
44
0.0000000001
40
0
40
0
40
0
40
0
40
0
40
0
40
0.013333333333333334
40
0.026666666666666668
40
0.040000000000000001
40
0.053333333333333337
40
0.066666666666666666
40
0.080000000000000002
40
0.093333333333333338
40
0.10666666666666667
40
0.12000000000000001
40
0.13333333333333333
40
0.14666666666666667
40
0.16
40
0.17333333333333334
40
0.18666666666666668
40
0.20000000000000001
40
0.20697531734262636
40
0.20697531734262636
40
0.20697531734262636
40
0.20697531734262636
40
0.20697531734262636
40
0.20697531734262636
41
1
41
1
41
1
41
1
41
1
41
1
41
1
41
1
41
1
41
1
41
1
41
1
41
1
41
1
41
1
41
1
41
1
41
1
41
1
41
1
41
1
10
0
20
50.833218850654866
30
0
10
-0.96603270110017259
20
50.830441890567684
30
0
10
-2.8882858194787762
20
50.82502200133721
30
0
10
-5.7422353359151943
20
50.817295791916528
30
0
10
-9.5059052107023394
20
50.812910295433447
30
0
10
-14.237052541620642
20
50.847875453461306
30
0
10
-19.108180352319252
20
50.963599451538222
30
0
10
-24.218165913733323
20
51.202745491992417
30
0
10
-29.612138443636262
20
51.601331803439301
30
0
10
-35.264843072776976
20
52.18490575869577
30
0
10
-41.107826387301138
20
52.974897154784259
30
0
10
-47.046837766530636
20
53.992539599419274
30
0
10
-52.98368124769997
20
55.264245355066215
30
0
10
-58.834826215939529
20
56.825243233318076
30
0
10
-64.554890168436671
20
58.726897539078536
30
0
10
-70.129721175832799
20
61.018567844762771
30
0
10
-75.044812538386552
20
63.465912685012057
30
0
10
-78.791796625388514
20
65.614105950800365
30
0
10
-81.434774378670625
20
67.251475558223092
30
0
10
-83.015030249319409
20
68.266255795727858
30
0
10
-83.555962615162613
20
68.617448116752783
30
0
0
SPLINE
5
120
100
AcDbEntity
8
0
100
AcDbSpline
70
0
71
3
72
16
73
12
74
0
42
0.000000001
43
0.0000000001
44
0.0000000001
40
-2.2088316689524201
40
-2.2088316689524201
40
-2.2088316689524201
40
-2.2088316689524201
40
-1.8368742220766991
40
-1.8368742220766991
40
-1.4649167752009764
40
-1.4649167752009764
40
-0.97661118346731679
40
-0.97661118346731679
40
-0.48830559173365856
40
-0.48830559173365856
40
0
40
0
40
0
40
0
10
-83.555962615162628
20
68.617448116752769
30
0
10
-84.595877049418831
20
69.292597149967804
30
0
10
-85.730479199763693
20
69.809283094338738
30
0
10
-88.114433575665657
20
70.491745198869353
30
0
10
-89.350574470806777
20
70.653739309988822
30
0
10
-92.217642770047803
20
70.60153898311745
30
0
10
-93.823711957558487
20
70.254321673101018
30
0
10
-96.812355885957189
20
68.963800349046579
30
0
10
-98.16635756195295
20
68.032834422254993
30
0
10
-100.44129494899722
20
65.704294600044122
30
0
10
-101.34048101868896
20
64.328982814477456
30
0
10
-101.95077197696166
20
62.820041330887378
30
0
0
LINE
5
121
100
AcDbEntity
8
0
100
AcDbLine
10
-101.95077197696166
20
62.820041330887378
30
0
11
-103.34866951345515
21
59.363746339079654
31
0
0
SPLINE
5
122
100
AcDbEntity
8
0
100
AcDbSpline
70
0
71
3
72
14
73
10
74
0
42
0.000000001
43
0.0000000001
44
0.0000000001
40
-1.7078745620302471
40
-1.7078745620302471
40
-1.7078745620302471
40
-1.7078745620302471
40
-1.3422428727487772
40
-1.3422428727487772
40
-0.97661118346730835
40
-0.97661118346730835
40
-0.48830559173364996
40
-0.48830559173364996
40
0
40
0
40
0
40
0
10
-103.34866951345523
20
59.363746339079697
30
0
10
-103.80564096289989
20
58.233886609820537
30
0
10
-104.09492049104701
20
57.043243563369273
30
0
10
-104.31970484160131
20
54.616085626731781
30
0
10
-104.25400602713825
20
53.392567267553659
30
0
10
-103.68950942277165
20
50.602645320344422
30
0
10
-103.05819170718436
20
49.085590266158228
30
0
10
-101.24958119079098
20
46.37886423299846
30
0
10
-100.08957969229051
20
45.21507103018152
30
0
10
-98.739174959488594
20
44.306354070796203
30
0
0
SPLINE
5
123
100
AcDbEntity
8
0
100
AcDbSpline
70
0
71
3
72
14
73
10
74
0
42
0.000000001
43
0.0000000001
44
0.0000000001
40
1.8440639718814573
40
1.8440639718814573
40
1.8440639718814573
40
1.8440639718814573
40
1.8479941687335306
40
1.8479941687335306
40
1.9880530224100372
40
1.9880530224100372
40
2.0627018083119157
40
2.0627018083119157
40
2.0983968984318042
40
2.0983968984318042
40
2.0983968984318042
40
2.0983968984318042
10
-98.739174959488523
20
44.306354070796168
30
0
10
-98.678690130033402
20
44.265652502609747
30
0
10
-98.617877144756449
20
44.22448584497679
30
0
10
-96.377928776441237
20
42.699005403664572
30
0
10
-92.685100032131317
20
39.86949236451261
30
0
10
-88.978110282585149
20
34.676568509737137
30
0
10
-88.094663740789002
20
32.77306489625304
30
0
10
-87.118109089120253
20
29.055014299450118
30
0
10
-86.776111815736584
20
27.419230199877877
30
0
10
-86.585075038884597
20
25.636372971758536
30
0
0
LINE
5
124
100
AcDbEntity
8
0
100
AcDbLine
10
-86.585075038884597
20
25.636372971758536
30
0
11
-79.152350375492489
21
-26.401654790933353
31
0
0
SPLINE
5
125
100
AcDbEntity
8
0
100
AcDbSpline
70
0
71
3
72
10
73
6
74
0
42
0.000000001
43
0.0000000001
44
0.0000000001
40
14.162771681080303
40
14.162771681080303
40
14.162771681080303
40
14.162771681080303
40
15.78103489761782
40
15.78103489761782
40
16.014291800484191
40
16.014291800484191
40
16.014291800484191
40
16.014291800484191
10
-79.152350375492489
20
-26.401654790933353
30
0
10
-79.088964141614099
20
-26.778328308651524
30
0
10
-79.033644035959441
20
-27.157552187428706
30
0
10
-78.979564591678383
20
-27.593341701832639
30
0
10
-78.972917586558182
20
-27.64826663341719
30
0
10
-78.966445013367675
20
-27.703216308896561
30
0
0
SPLINE
5
126
100
AcDbEntity
8
0
100
AcDbSpline
70
0
71
3
72
10
73
6
74
0
42
0.000000001
43
0.0000000001
44
0.0000000001
40
16.014291800484195
40
16.014291800484195
40
16.014291800484195
40
16.014291800484195
40
31.692731214808646
40
31.692731214808646
40
41.495415305325018
40
41.495415305325018
40
41.495415305325018
40
41.495415305325018
10
-78.966445013367675
20
-27.703216308896561
30
0
10
-78.530796500575406
20
-31.3966069404674
30
0
10
-78.843989585968828
20
-35.197161450753043
30
0
10
-80.448951042446666
20
-41.605128025633967
30
0
10
-81.357328957520295
20
-44.185110445836344
30
0
10
-82.53511959057262
20
-46.559144445879703
30
0
0
SPLINE
5
127
100
AcDbEntity
8
0
100
AcDbSpline
70
0
71
3
72
12
73
8
74
0
42
0.000000001
43
0.0000000001
44
0.0000000001
40
-1.5726386378430888
40
-1.5726386378430888
40
-1.5726386378430888
40
-1.5726386378430888
40
-1.1281332331351113
40
-1.1281332331351113
40
-0.68362782842712499
40
-0.68362782842712499
40
0
40
0
40
0
40
0
10
-82.535119590572563
20
-46.559144445879824
30
0
10
-83.193619162622667
20
-47.886460463846099
30
0
10
-83.680889569093068
20
-49.292049337763409
30
0
10
-84.289559116435683
20
-52.192235430740567
30
0
10
-84.408501410623998
20
-53.675126277079315
30
0
10
-84.232601756808975
20
-57.431454167401014
30
0
10
-83.682423718229458
20
-59.665137133477316
30
0
10
-82.719627442884459
20
-61.730510674339307
30
0
0
LINE
5
128
100
AcDbEntity
8
0
100
AcDbLine
10
-82.719627442884459
20
-61.7305106743393
30
0
11
-81.223162881908394
21
-64.940699982529239
31
0
0
SPLINE
5
129
100
AcDbEntity
8
0
100
AcDbSpline
70
0
71
3
72
14
73
10
74
0
42
0.000000001
43
0.0000000001
44
0.0000000001
40
-2.0787588143924642
40
-2.0787588143924642
40
-2.0787588143924642
40
-2.0787588143924642
40
-1.7230072356233559
40
-1.7230072356233559
40
-1.3672556568542467
40
-1.3672556568542467
40
-0.68362782842712311
40
-0.68362782842712311
40
0
40
0
40
0
40
0
10
-81.223162881908394
20
-64.940699982529239
30
0
10
-80.722135450396365
20
-66.0154951669209
30
0
10
-80.113157191316589
20
-67.036586446279117
30
0
10
-78.698088821229305
20
-68.939855794021227
30
0
10
-77.895655969211802
20
-69.817114842886653
30
0
10
-75.310141028471918
20
-72.123313437767095
30
0
10
-73.329562201898085
20
-73.293502729634909
30
0
10
-69.031334200053308
20
-74.808829152753461
30
0
10
-66.754778427195262
20
-75.139478937482465
30
0
10
-64.478921380438848
20
-75.024504010476079
30
0
0
SPLINE
5
130
100
AcDbEntity
8
0
100
AcDbSpline
70
4
71
5
72
21
73
15
74
0
42
0.000000001
43
0.0000000001
44
0.0000000001
40
0.87077136049035586
40
0.87077136049035586
40
0.87077136049035586
40
0.87077136049035586
40
0.87077136049035586
40
0.87077136049035586
40
0.87999999999999889
40
0.8933333333333322
40
0.90666666666666551
40
0.91999999999999882
40
0.93333333333333213
40
0.94666666666666544
40
0.95999999999999874
40
0.97333333333333205
40
0.98666666666666536
40
1
40
1
40
1
40
1
40
1
40
1
41
1
41
1
41
1
41
1
41
1
41
1
41
1
41
1
41
1
41
1
41
1
41
1
41
1
41
1
41
1
10
-64.478921380438848
20
-75.024504010476079
30
0
10
-63.473841642977675
20
-74.973727987608157
30
0
10
-60.989829230189862
20
-74.848976630337589
30
0
10
-56.945819317598072
20
-74.648221125710862
30
0
10
-51.269902591882015
20
-74.369571881612444
30
0
10
-44.043566579479347
20
-74.019343184045027
30
0
10
-36.578209380957297
20
-73.666818648637189
30
0
10
-29.529113657159879
20
-73.35087465253946
30
0
10
-22.953892878706142
20
-73.082618974355881
30
0
10
-16.81337085858555
20
-72.86873796267237
30
0
10
-11.012086505440122
20
-72.712709709070296
30
0
10
-6.5495364897954431
20
-72.63511438879442
30
0
10
-3.2583882092638623
20
-72.603447579740418
30
0
10
-1.0830092137931355
20
-72.594079040009362
30
0
10
0
20
-72.592330457095514
30
0
0
SPLINE
5
131
100
AcDbEntity
8
0
100
AcDbSpline
70
4
71
5
72
21
73
15
74
0
42
0.000000001
43
0.0000000001
44
0.0000000001
40
-1
40
-1
40
-1
40
-1
40
-1
40
-1
40
-0.98666666666666536
40
-0.97333333333333205
40
-0.95999999999999874
40
-0.94666666666666544
40
-0.93333333333333213
40
-0.91999999999999882
40
-0.90666666666666551
40
-0.8933333333333322
40
-0.87999999999999889
40
-0.87077136049035586
40
-0.87077136049035586
40
-0.87077136049035586
40
-0.87077136049035586
40
-0.87077136049035586
40
-0.87077136049035586
41
1
41
1
41
1
41
1
41
1
41
1
41
1
41
1
41
1
41
1
41
1
41
1
41
1
41
1
41
1
10
0
20
-72.592330457095514
30
0
10
1.0830092137931355
20
-72.594079040009362
30
0
10
3.2583882092638623
20
-72.603447579740418
30
0
10
6.5495364897954431
20
-72.63511438879442
30
0
10
11.012086505440122
20
-72.712709709070296
30
0
10
16.81337085858555
20
-72.86873796267237
30
0
10
22.953892878706142
20
-73.082618974355881
30
0
10
29.529113657159879
20
-73.35087465253946
30
0
10
36.578209380957297
20
-73.666818648637189
30
0
10
44.043566579479347
20
-74.019343184045027
30
0
10
51.269902591882015
20
-74.369571881612444
30
0
10
56.945819317598072
20
-74.648221125710862
30
0
10
60.989829230189862
20
-74.848976630337589
30
0
10
63.473841642977675
20
-74.973727987608157
30
0
10
64.478921380438848
20
-75.024504010476079
30
0
0
SPLINE
5
132
100
AcDbEntity
8
0
100
AcDbSpline
70
0
71
3
72
14
73
10
74
0
42
0.000000001
43
0.0000000001
44
0.0000000001
40
-2.078758814392466
40
-2.078758814392466
40
-2.078758814392466
40
-2.078758814392466
40
-1.7230072356233568
40
-1.7230072356233568
40
-1.3672556568542471
40
-1.3672556568542471
40
-0.68362782842712411
40
-0.68362782842712411
40
0
40
0
40
0
40
0
10
64.478921380438848
20
-75.024504010476093
30
0
10
65.663249612510967
20
-75.084335559310915
30
0
10
66.850598412450509
20
-75.023633433356693
30
0
10
69.194701931688286
20
-74.663034773939827
30
0
10
70.345398290945099
20
-74.364070211480723
30
0
10
73.593064855227198
20
-73.157379963296918
30
0
10
75.553698630251432
20
-71.954071745378968
30
0
10
78.90336180876659
20
-68.863645445506506
30
0
10
80.260366606563437
20
-67.006073523391237
30
0
10
81.223162881908422
20
-64.940699982529253
30
0
0
LINE
5
133
100
AcDbEntity
8
0
100
AcDbLine
10
81.223162881908422
20
-64.940699982529253
30
0
11
82.719627442884473
21
-61.730510674339257
31
0
0
SPLINE
5
134
100
AcDbEntity
8
0
100
AcDbSpline
70
0
71
3
72
12
73
8
74
0
42
0.000000001
43
0.0000000001
44
0.0000000001
40
-1.5726386378436081
40
-1.5726386378436081
40
-1.5726386378436081
40
-1.5726386378436081
40
-1.128133233135366
40
-1.128133233135366
40
-0.68362782842712333
40
-0.68362782842712333
40
0
40
0
40
0
40
0
10
82.719627442884502
20
-61.730510674339243
30
0
10
83.345652496616538
20
-60.387572801598132
30
0
10
83.798595465924279
20
-58.970549443265838
30
0
10
84.336553705823363
20
-56.056418539566543
30
0
10
84.419397550353494
20
-54.571073654050693
30
0
10
84.152197634728935
20
-50.820134556582239
30
0
10
83.547860105518197
20
-48.600492329136095
30
0
10
82.535119590570332
20
-46.55914444587512
30
0
0
SPLINE
5
135
100
AcDbEntity
8
0
100
AcDbSpline
70
0
71
3
72
12
73
8
74
0
42
0.000000001
43
0.0000000001
44
0.0000000001
40
3.0424270450063249
40
3.0424270450063249
40
3.0424270450063249
40
3.0424270450063249
40
3.492549236842529
40
3.492549236842529
40
4.7330806605511446
40
4.7330806605511446
40
4.8961859266739118
40
4.8961859266739118
40
4.8961859266739118
40
4.8961859266739118
10
82.535119590570304
20
-46.559144445875106
30
0
10
81.961302770685592
20
-45.402520677630882
30
0
10
81.474874723941255
20
-44.243755092408179
30
0
10
79.953191638430667
20
-40.127929733722183
30
0
10
78.575432306555598
20
-35.24915696117629
30
0
10
78.830626181663476
20
-29.075637539049882
30
0
10
78.886816993841919
20
-28.378450483808194
30
0
10
78.966445013367277
20
-27.703216308899876
30
0
0
SPLINE
5
136
100
AcDbEntity
8
0
100
AcDbSpline
70
0
71
3
72
8
73
4
74
0
42
0.000000001
43
0.0000000001
44
0.0000000001
40
4.8961859266741801
40
4.8961859266741801
40
4.8961859266741801
40
4.8961859266741801
40
5.0033116019677282
40
5.0033116019677282
40
5.0033116019677282
40
5.0033116019677282
10
78.966445013367675
20
-27.70321630889654
30
0
10
79.018525120352137
20
-27.259704519180062
30
0
10
79.080605880219977
20
-26.825649703637335
30
0
10
79.152350375493214
20
-26.401654790929044
30
0
0
LINE
5
137
100
AcDbEntity
8
0
100
AcDbLine
10
79.152350375493214
20
-26.401654790929044
30
0
11
86.585075038883332
21
25.636372971746955
31
0
0
SPLINE
5
138
100
AcDbEntity
8
0
100
AcDbSpline
70
0
71
3
72
14
73
10
74
0
42
0.000000001
43
0.0000000001
44
0.0000000001
40
2.0911369258924308
40
2.0911369258924308
40
2.0911369258924308
40
2.0911369258924308
40
2.1717792443823694
40
2.1717792443823694
40
2.8748192730937507
40
2.8748192730937507
40
3.2182272417838433
40
3.2182272417838433
40
3.4036529174502386
40
3.4036529174502386
40
3.4036529174502386
40
3.4036529174502386
10
86.585075038883332
20
25.636372971746944
30
0
10
86.607825141064751
20
25.845507515718083
30
0
10
86.632312693775631
20
26.046948547517879
30
0
10
86.874639988380693
20
27.920430463154201
30
0
10
87.460311190122127
20
31.513773044056435
30
0
10
89.811136743915583
20
35.960371056741643
30
0
10
91.099128361296778
20
37.872685427765099
30
0
10
94.991789280500512
20
41.52559347743356
30
0
10
96.775589824034881
20
42.9850145712808
30
0
10
98.739174959488537
20
44.306354070796161
30
0
0
SPLINE
5
139
100
AcDbEntity
8
0
100
AcDbSpline
70
0
71
3
72
14
73
10
74
0
42
0.000000001
43
0.0000000001
44
0.0000000001
40
-1.707874562030264
40
-1.707874562030264
40
-1.707874562030264
40
-1.707874562030264
40
-1.342242872748779
40
-1.342242872748779
40
-0.97661118346730469
40
-0.97661118346730469
40
-0.48830559173365568
40
-0.48830559173365568
40
0
40
0
40
0
40
0
10
98.739174959488608
20
44.306354070796104
30
0
10
99.750326115704326
20
44.986779858588477
30
0
10
100.65654884022146
20
45.811445780666276
30
0
10
102.20152457571257
20
47.696829993600225
30
0
10
102.83200481434208
20
48.747452750904415
30
0
10
103.92603186468932
20
51.375270419801879
30
0
10
104.25214350478092
20
52.985757704335008
30
0
10
104.26868689019089
20
56.241086279915756
30
0
10
103.95896047172795
20
57.854804855489675
30
0
10
103.34866951345521
20
59.363746339079739
30
0
0
LINE
5
140
100
AcDbEntity
8
0
100
AcDbLine
10
103.34866951345523
20
59.363746339079739
30
0
11
101.95077197696153
21
62.820041330887335
31
0
0
SPLINE
5
141
100
AcDbEntity
8
0
100
AcDbSpline
70
0
71
3
72
16
73
12
74
0
42
0.000000001
43
0.0000000001
44
0.0000000001
40
-2.2088316689524103
40
-2.2088316689524103
40
-2.2088316689524103
40
-2.2088316689524103
40
-1.8368742220766925
40
-1.8368742220766925
40
-1.4649167752009742
40
-1.4649167752009742
40
-0.97661118346731557
40
-0.97661118346731557
40
-0.48830559173365501
40
-0.48830559173365501
40
0
40
0
40
0
40
0
10
101.95077197696163
20
62.820041330887371
30
0
10
101.48589450979088
20
63.969448651267093
30
0
10
100.8525810423948
20
65.043320364598074
30
0
10
99.290736570402572
20
66.969361598790528
30
0
10
98.370860950987534
20
67.810857439233871
30
0
10
95.991966499520885
20
69.412002871547685
30
0
10
94.477041453294248
20
70.048414844849148
30
0
10
91.288515648110007
20
70.704723467577793
30
0
10
89.645398933730803
20
70.718345448855843
30
0
10
86.446430107094798
20
70.114991270280143
30
0
10
84.921161880393342
20
69.503783505226991
30
0
10
83.555962615162571
20
68.617448116752769
30
0
0
ENDSEC
0
SECTION
2
OBJECTS
0
DICTIONARY
5
C
100
AcDbDictionary
3
ACAD_GROUP
350
D
3
ACAD_MLINESTYLE
350
17
0
DICTIONARY
5
D
100
AcDbDictionary
0
DICTIONARY
5
1A
330
C
100
AcDbDictionary
0
DICTIONARY
5
17
100
AcDbDictionary
0
ENDSEC
0
EOF
