0
SECTION
2
HEADER
9
$INSUNITS
70
4
9
$ACADVER
1
AC1014
9
$HANDSEED
5
FFFF
0
ENDSEC
0
SECTION
2
TABLES
0
TABLE
2
VPORT
5
8
100
AcDbSymbolTable
0
ENDTAB
0
TABLE
2
LTYPE
5
5
100
AcDbSymbolTable
0
LTYPE
5
14
100
AcDbSymbolTableRecord
100
AcDbLinetypeTableRecord
2
BYBLOCK
70
0
0
LTYPE
5
15
100
AcDbSymbolTableRecord
100
AcDbLinetypeTableRecord
2
BYLAYER
70
0
0
ENDTAB
0
TABLE
2
LAYER
5
2
100
AcDbSymbolTable
70
2
0
LAYER
5
50
100
AcDbSymbolTableRecord
100
AcDbLayerTableRecord
2
0
70
0
6
CONTINUOUS
0
ENDTAB
0
TABLE
2
STYLE
5
3
100
AcDbSymbolTable
70
1
0
STYLE
5
11
100
AcDbSymbolTableRecord
100
AcDbTextStyleTableRecord
2
STANDARD
70
0
0
ENDTAB
0
TABLE
2
VIEW
5
6
100
AcDbSymbolTable
70
0
0
ENDTAB
0
TABLE
2
UCS
5
7
100
AcDbSymbolTable
70
0
0
ENDTAB
0
TABLE
2
APPID
5
9
100
AcDbSymbolTable
70
2
0
APPID
5
12
100
AcDbSymbolTableRecord
100
AcDbRegAppTableRecord
2
ACAD
70
0
0
ENDTAB
0
TABLE
2
DIMSTYLE
5
A
100
AcDbSymbolTable
70
1
0
ENDTAB
0
TABLE
2
BLOCK_RECORD
5
1
100
AcDbSymbolTable
70
1
0
BLOCK_RECORD
5
1F
100
AcDbSymbolTableRecord
100
AcDbBlockTableRecord
2
*MODEL_SPACE
0
BLOCK_RECORD
5
1B
100
AcDbSymbolTableRecord
100
AcDbBlockTableRecord
2
*PAPER_SPACE
0
ENDTAB
0
ENDSEC
0
SECTION
2
BLOCKS
0
BLOCK
5
20
100
AcDbEntity
100
AcDbBlockBegin
2
*MODEL_SPACE
0
ENDBLK
5
21
100
AcDbEntity
100
AcDbBlockEnd
0
BLOCK
5
1C
100
AcDbEntity
100
AcDbBlockBegin
2
*PAPER_SPACE
0
ENDBLK
5
1D
100
AcDbEntity
100
AcDbBlockEnd
0
ENDSEC
0
SECTION
2
ENTITIES
0
CIRCLE
5
100
100
AcDbEntity
8
0
100
AcDbCircle
10
-44.5
20
40.97801161341215
30
0
40
2.5
210
0
220
0
230
1
0
CIRCLE
5
101
100
AcDbEntity
8
0
100
AcDbCircle
10
-63.846893299841582
20
-58.524865094679811
30
0
40
2.5
210
0
220
0
230
1
0
CIRCLE
5
102
100
AcDbEntity
8
0
100
AcDbCircle
10
-75.607081877302022
20
-2.2894098042819251e-14
30
0
40
1.6500000000000004
210
0
220
0
230
1
0
CIRCLE
5
103
100
AcDbEntity
8
0
100
AcDbCircle
10
44.5
20
40.97801161341215
30
0
40
2.5
210
0
220
-0
230
1
0
CIRCLE
5
104
100
AcDbEntity
8
0
100
AcDbCircle
10
63.846893299841582
20
-58.524865094679811
30
0
40
2.5
210
0
220
-0
230
1
0
CIRCLE
5
105
100
AcDbEntity
8
0
100
AcDbCircle
10
75.607081877302022
20
-2.2894098042819251e-14
30
0
40
1.6500000000000004
210
0
220
-0
230
1
0
CIRCLE
5
106
100
AcDbEntity
8
0
100
AcDbCircle
10
-30
20
-55
30
0
40
3.5999999999999983
210
0
220
0
230
1
0
CIRCLE
5
107
100
AcDbEntity
8
0
100
AcDbCircle
10
63.221205753802835
20
16.005151681164286
30
0
40
6.1000000000000032
210
0
220
0
230
1
0
CIRCLE
5
108
100
AcDbEntity
8
0
100
AcDbCircle
10
-72.063845088915045
20
39.389072002383465
30
0
40
6.1000000000000032
210
0
220
0
230
1
0
CIRCLE
5
109
100
AcDbEntity
8
0
100
AcDbCircle
10
-63.221205753802835
20
16.005151681164286
30
0
40
6.1000000000000032
210
0
220
0
230
1
0
CIRCLE
5
110
100
AcDbEntity
8
0
100
AcDbCircle
10
72.063845088915045
20
39.389072002383465
30
0
40
6.1000000000000032
210
0
220
0
230
1
0
CIRCLE
5
111
100
AcDbEntity
8
0
100
AcDbCircle
10
30
20
-55
30
0
40
3.5999999999999983
210
0
220
0
230
1
0
CIRCLE
5
112
100
AcDbEntity
8
0
100
AcDbCircle
10
-60.242469726542524
20
-33.855907626431346
30
0
40
6.1000000000000032
210
0
220
0
230
1
0
CIRCLE
5
113
100
AcDbEntity
8
0
100
AcDbCircle
10
60.615581906205016
20
-8.8586920354622656
30
0
40
6.1000000000000032
210
0
220
0
230
1
0
CIRCLE
5
114
100
AcDbEntity
8
0
100
AcDbCircle
10
-89.770116540863555
20
57.038093257680103
30
0
40
6.0999999999999943
210
0
220
0
230
1
0
CIRCLE
5
115
100
AcDbEntity
8
0
100
AcDbCircle
10
-60.615581906205016
20
-8.8586920354622727
30
0
40
6.1000000000000032
210
0
220
0
230
1
0
CIRCLE
5
116
100
AcDbEntity
8
0
100
AcDbCircle
10
89.770116540863555
20
57.038093257680124
30
0
40
6.0999999999999943
210
0
220
0
230
1
0
CIRCLE
5
117
100
AcDbEntity
8
0
100
AcDbCircle
10
60.242469726542524
20
-33.855907626431346
30
0
40
6.1000000000000032
210
0
220
0
230
1
0
CIRCLE
5
118
100
AcDbEntity
8
0
100
AcDbCircle
10
-119.49913710999374
20
-0.98116863439635105
30
0
40
1.6499999999999915
210
0
220
-0
230
1
0
CIRCLE
5
119
100
AcDbEntity
8
0
100
AcDbCircle
10
-136.22647347482794
20
25.056220569114966
30
0
40
1.6499999999999915
210
0
220
-0
230
1
0
CIRCLE
5
120
100
AcDbEntity
8
0
100
AcDbCircle
10
-124.30908379634855
20
-54.485641104970256
30
0
40
1.6500000000000092
210
0
220
-0
230
1
0
CIRCLE
5
121
100
AcDbEntity
8
0
100
AcDbCircle
10
119.49913710999374
20
-0.98116863439635105
30
0
40
1.6499999999999915
210
0
220
0
230
1
0
CIRCLE
5
122
100
AcDbEntity
8
0
100
AcDbCircle
10
136.22647347482794
20
25.056220569114966
30
0
40
1.6499999999999915
210
0
220
0
230
1
0
CIRCLE
5
123
100
AcDbEntity
8
0
100
AcDbCircle
10
124.30908379634855
20
-54.485641104970256
30
0
40
1.6500000000000092
210
0
220
0
230
1
0
SPLINE
5
124
100
AcDbEntity
8
0
100
AcDbSpline
70
4
71
5
72
20
73
14
74
0
42
0.000000001
43
0.0000000001
44
0.0000000001
40
-0.93563604497040775
40
-0.93563604497040775
40
-0.93563604497040775
40
-0.93563604497040775
40
-0.93563604497040775
40
-0.93563604497040775
40
-0.92000000000000026
40
-0.88000000000000023
40
-0.84000000000000019
40
-0.80000000000000016
40
-0.76000000000000012
40
-0.72000000000000008
40
-0.68000000000000005
40
-0.64000000000000001
40
-0.62268191848876031
40
-0.62268191848876031
40
-0.62268191848876031
40
-0.62268191848876031
40
-0.62268191848876031
40
-0.62268191848876031
41
1
41
1
41
1
41
1
41
1
41
1
41
1
41
1
41
1
41
1
41
1
41
1
41
1
41
1
10
-108.96869316530534
20
-53.123550393724237
30
0
10
-109.15556118825755
20
-52.928785065855912
30
0
10
-109.81590094447714
20
-52.22451751509692
30
0
10
-110.9230010422508
20
-50.945280642188877
30
0
10
-112.42462783493448
20
-48.966091912827004
30
0
10
-114.24237534516494
20
-46.116527339009963
30
0
10
-116.14107967346561
20
-42.544619034925518
30
0
10
-117.86904922181984
20
-38.752087505072275
30
0
10
-119.4276123194532
20
-34.872908836047252
30
0
10
-120.66023397097422
20
-31.470296474499477
30
0
10
-121.51570002784081
20
-28.913674930530195
30
0
10
-122.07177917758962
20
-27.147334396557071
30
0
10
-122.38170115409476
20
-26.120472312414648
30
0
10
-122.47372895333984
20
-25.811356585037469
30
0
0
SPLINE
5
125
100
AcDbEntity
8
0
100
AcDbSpline
70
0
71
3
72
10
73
6
74
0
42
0.000000001
43
0.0000000001
44
0.0000000001
40
0
40
0
40
0
40
0
40
0.19180911864621594
40
0.19180911864621594
40
0.38361823729243227
40
0.38361823729243227
40
0.38361823729243227
40
0.38361823729243227
10
-123.01396850494794
20
-22.029184260034693
30
0
10
-123.01754890202859
20
-22.66853796377643
30
0
10
-122.97395755271009
20
-23.307285599767642
30
0
10
-122.79314139760348
20
-24.573164515374746
30
0
10
-122.65616269477903
20
-25.198572848539804
30
0
10
-122.47372895333997
20
-25.811356585037508
30
0
0
SPLINE
5
126
100
AcDbEntity
8
0
100
AcDbSpline
70
4
71
5
72
25
73
19
74
0
42
0.000000001
43
0.0000000001
44
0.0000000001
40
-0.90986834877227907
40
-0.90986834877227907
40
-0.90986834877227907
40
-0.90986834877227907
40
-0.90986834877227907
40
-0.90986834877227907
40
-0.86666666666666659
40
-0.79999999999999993
40
-0.73333333333333328
40
-0.66666666666666663
40
-0.59999999999999998
40
-0.53333333333333333
40
-0.46666666666666662
40
-0.39999999999999997
40
-0.33333333333333331
40
-0.26666666666666666
40
-0.20000000000000001
40
-0.13333333333333333
40
-0.066666666666666666
40
0
40
0
40
0
40
0
40
0
40
0
41
1
41
1
41
1
41
1
41
1
41
1
41
1
41
1
41
1
41
1
41
1
41
1
41
1
41
1
41
1
41
1
41
1
41
1
41
1
10
-123.01396850494795
20
-22.029184260035102
30
0
10
-123.01278131196035
20
-21.817186479742649
30
0
10
-123.00473675942392
20
-21.274460499265459
30
0
10
-122.96998489930063
20
-20.390141262095085
30
0
10
-122.86536030033045
20
-19.160333640232402
30
0
10
-122.60409504563961
20
-17.627757310966004
30
0
10
-122.13725464085535
20
-16.094320264487465
30
0
10
-121.46201571930305
20
-14.739079350867604
30
0
10
-120.58191918433135
20
-13.59469819227872
30
0
10
-119.5272029470959
20
-12.660988665249652
30
0
10
-118.34195564031788
20
-11.918577099003569
30
0
10
-117.07555333377715
20
-11.337201314577372
30
0
10
-115.7738373568135
20
-10.88455947681628
30
0
10
-114.46881860228612
20
-10.535570394186077
30
0
10
-113.17824981099513
20
-10.274211647583606
30
0
10
-112.16419560486284
20
-10.127635778983672
30
0
10
-111.41506388510351
20
-10.050975615950151
30
0
10
-110.92068144717263
20
-10.014545590998296
30
0
10
-110.67474963059738
20
-9.9999999999999982
30
0
0
LINE
5
127
100
AcDbEntity
8
0
100
AcDbLine
10
-110.67474963059738
20
-9.9999999999999982
30
0
11
-98.176984105449719
21
-10.000000000000002
31
0
0
SPLINE
5
128
100
AcDbEntity
8
0
100
AcDbSpline
70
4
71
5
72
49
73
43
74
0
42
0.000000001
43
0.0000000001
44
0.0000000001
40
0
40
0
40
0
40
0
40
0
40
0
40
0.025000000000000001
40
0.050000000000000003
40
0.075000000000000011
40
0.10000000000000001
40
0.125
40
0.14999999999999999
40
0.17499999999999999
40
0.19999999999999998
40
0.22499999999999998
40
0.24999999999999997
40
0.27499999999999997
40
0.29999999999999999
40
0.32500000000000001
40
0.35000000000000003
40
0.37500000000000006
40
0.40000000000000008
40
0.4250000000000001
40
0.45000000000000012
40
0.47500000000000014
40
0.50000000000000011
40
0.52500000000000013
40
0.55000000000000016
40
0.57500000000000018
40
0.6000000000000002
40
0.62500000000000022
40
0.65000000000000024
40
0.67500000000000027
40
0.70000000000000029
40
0.72500000000000031
40
0.75000000000000033
40
0.77500000000000036
40
0.80000000000000038
40
0.8250000000000004
40
0.85000000000000042
40
0.87500000000000044
40
0.90000000000000047
40
0.92500000000000049
40
0.94754200058920746
40
0.94754200058920746
40
0.94754200058920746
40
0.94754200058920746
40
0.94754200058920746
40
0.94754200058920746
41
1
41
1
41
1
41
1
41
1
41
1
41
1
41
1
41
1
41
1
41
1
41
1
41
1
41
1
41
1
41
1
41
1
41
1
41
1
41
1
41
1
41
1
41
1
41
1
41
1
41
1
41
1
41
1
41
1
41
1
41
1
41
1
41
1
41
1
41
1
41
1
41
1
41
1
41
1
41
1
41
1
41
1
41
1
10
-98.176984105449719
20
-10.000000000000002
30
0
10
-97.73155638962524
20
-10.001741216787806
30
0
10
-96.858756309034476
20
-10.019561971198684
30
0
10
-95.603722198951573
20
-10.089307985010089
30
0
10
-94.038786065722192
20
-10.268420723779226
30
0
10
-92.262534516892771
20
-10.634467977621325
30
0
10
-90.66263450199672
20
-11.137674507678764
30
0
10
-89.231084895861898
20
-11.767337892359905
30
0
10
-87.953779945185872
20
-12.50502292604609
30
0
10
-86.808713940069921
20
-13.322302228447931
30
0
10
-85.770331609479186
20
-14.190031694730003
30
0
10
-84.813873366837981
20
-15.087536913934878
30
0
10
-83.919862333567579
20
-16.012344260069582
30
0
10
-83.078125454550786
20
-16.988339315871258
30
0
10
-82.285893893015825
20
-18.051558787415516
30
0
10
-81.546365539895461
20
-19.238581252921406
30
0
10
-80.867046703322174
20
-20.57180060289436
30
0
10
-80.258432724006767
20
-22.05306800057933
30
0
10
-79.733159789353593
20
-23.672298109690256
30
0
10
-79.305061140225575
20
-25.412939669346208
30
0
10
-78.988268110977515
20
-27.258274140393279
30
0
10
-78.796271999834161
20
-29.198337984497954
30
0
10
-78.741150444027113
20
-31.227680979675402
30
0
10
-78.832825532135743
20
-33.341277252895082
30
0
10
-79.078269413472185
20
-35.530998775344919
30
0
10
-79.480766054118689
20
-37.782033234942354
30
0
10
-80.038990338166059
20
-40.068829164162565
30
0
10
-80.746534862858454
20
-42.35259975434473
30
0
10
-81.593728066299903
20
-44.586941319835461
30
0
10
-82.569137886965706
20
-46.722372715713554
30
0
10
-83.661168472646054
20
-48.711245188098225
30
0
10
-84.859628466333845
20
-50.51257706716116
30
0
10
-86.157252660864089
20
-52.09677566285167
30
0
10
-87.551393766044271
20
-53.450940625345169
30
0
10
-89.042967955770948
20
-54.575266869041798
30
0
10
-90.635213575868363
20
-55.478864603248901
30
0
10
-92.332489718876744
20
-56.175753160425977
30
0
10
-94.139130824231103
20
-56.681037126517772
30
0
10
-96.020347448851155
20
-57.00007670403452
30
0
10
-97.60447444773925
20
-57.123308914497343
30
0
10
-98.830822425121582
20
-57.144825053540771
30
0
10
-99.655264264629452
20
-57.129162150396681
30
0
10
-100.05083210414301
20
-57.115072804236576
30
0
0
SPLINE
5
129
100
AcDbEntity
8
0
100
AcDbSpline
70
0
71
3
72
10
73
6
74
0
42
0.000000001
43
0.0000000001
44
0.0000000001
40
0
40
0
40
0
40
0
40
0.50235904292897926
40
0.50235904292897926
40
1.0047180858579599
40
1.0047180858579599
40
1.0047180858579599
40
1.0047180858579599
10
-108.96869316530824
20
-53.123550393721217
30
0
10
-107.80937224946469
20
-54.331865838556219
30
0
10
-106.42743196364097
20
-55.304879416463343
30
0
10
-103.370598201221
20
-56.673079748829103
30
0
10
-101.72430106558866
20
-57.05546714085844
30
0
10
-100.05083210411009
20
-57.115072804237769
30
0
0
LINE
5
130
100
AcDbEntity
8
0
100
AcDbLine
10
-96.330664546749546
20
9.9999999999999947
30
0
11
-114.67304012046316
21
9.9999999999999982
31
0
0
SPLINE
5
131
100
AcDbEntity
8
0
100
AcDbSpline
70
0
71
3
72
10
73
6
74
0
42
0.000000001
43
0.0000000001
44
0.0000000001
40
0
40
0
40
0
40
0
40
0.17388469798375183
40
0.17388469798375183
40
0.34776939596750289
40
0.34776939596750289
40
0.34776939596750289
40
0.34776939596750289
10
-118.0391394083488
20
10.742633012993226
30
0
10
-117.51332896389341
20
10.498752530469345
30
0
10
-116.9625678125158
20
10.312736685882385
30
0
10
-115.83055873037567
20
10.062991433735212
30
0
10
-115.252655780409
20
10.000000000000002
30
0
10
-114.67304012046316
20
10.000000000000002
30
0
0
SPLINE
5
132
100
AcDbEntity
8
0
100
AcDbSpline
70
4
71
5
72
19
73
13
74
0
42
0.000000001
43
0.0000000001
44
0.0000000001
40
0.16177687751801678
40
0.16177687751801678
40
0.16177687751801678
40
0.16177687751801678
40
0.16177687751801678
40
0.16177687751801678
40
0.20000000000000001
40
0.30000000000000004
40
0.40000000000000002
40
0.5
40
0.59999999999999998
40
0.69999999999999996
40
0.79999999999999993
40
0.85487863153994259
40
0.85487863153994259
40
0.85487863153994259
40
0.85487863153994259
40
0.85487863153994259
40
0.85487863153994259
41
1
41
1
41
1
41
1
41
1
41
1
41
1
41
1
41
1
41
1
41
1
41
1
41
1
10
-118.03913940834877
20
10.742633012993208
30
0
10
-118.12772586338205
20
10.783721027935497
30
0
10
-118.44544624058432
20
10.934938854425253
30
0
10
-118.97651342577052
20
11.212116402386055
30
0
10
-119.68877180202139
20
11.647496456242319
30
0
10
-120.52963529628715
20
12.293807639462219
30
0
10
-121.36977164208643
20
13.150818202361016
30
0
10
-122.08664720243701
20
14.131423686246453
30
0
10
-122.63188038252409
20
15.130776134144853
30
0
10
-122.98902883837373
20
15.978838296309654
30
0
10
-123.21285978955466
20
16.620694490112683
30
0
10
-123.3372382876652
20
17.022387862529818
30
0
10
-123.3798656694749
20
17.166169091986355
30
0
0
SPLINE
5
133
100
AcDbEntity
8
0
100
AcDbSpline
70
0
71
3
72
10
73
6
74
0
42
0.000000001
43
0.0000000001
44
0.0000000001
40
0
40
0
40
0
40
0
40
0.17834945107253253
40
0.17834945107253253
40
0.35669890214506472
40
0.35669890214506472
40
0.35669890214506472
40
0.35669890214506472
10
-123.61121398964114
20
20.692516653117679
30
0
10
-123.70428183642098
20
20.105348491245302
30
0
10
-123.73160966196168
20
19.509631544677404
30
0
10
-123.65377211592508
20
18.323185754044616
30
0
10
-123.54884871928664
20
17.736145234732007
30
0
10
-123.37986566947546
20
17.16616909198801
30
0
0
SPLINE
5
134
100
AcDbEntity
8
0
100
AcDbSpline
70
4
71
5
72
17
73
11
74
0
42
0.000000001
43
0.0000000001
44
0.0000000001
40
-0.20643373331623474
40
-0.20643373331623474
40
-0.20643373331623474
40
-0.20643373331623474
40
-0.20643373331623474
40
-0.20643373331623474
40
-0.20000000000000001
40
-0.16
40
-0.12
40
-0.080000000000000002
40
-0.040000000000000001
40
0
40
0
40
0
40
0
40
0
40
0
41
1
41
1
41
1
41
1
41
1
41
1
41
1
41
1
41
1
41
1
41
1
10
-123.61121398964113
20
20.692516653117696
30
0
10
-123.58494209357558
20
20.858266925155267
30
0
10
-123.39385161519121
20
22.052567966976866
30
0
10
-123.01830451505124
20
24.24877446816599
30
0
10
-122.41574435420154
20
27.376138755717612
30
0
10
-121.52266601347277
20
31.29741596891234
30
0
10
-120.30183291036523
20
35.674289905429902
30
0
10
-119.20945274260052
20
38.894472042951975
30
0
10
-118.32586954860449
20
41.14971037427533
30
0
10
-117.70831150446696
20
42.582328203429697
30
0
10
-117.3924068378312
20
43.280918142167351
30
0
0
SPLINE
5
135
100
AcDbEntity
8
0
100
AcDbSpline
70
4
71
5
72
51
73
45
74
0
42
0.000000001
43
0.0000000001
44
0.0000000001
40
0
40
0
40
0
40
0
40
0
40
0
40
0.025000000000000001
40
0.050000000000000003
40
0.075000000000000011
40
0.10000000000000001
40
0.125
40
0.14999999999999999
40
0.17499999999999999
40
0.19999999999999998
40
0.22499999999999998
40
0.24999999999999997
40
0.27499999999999997
40
0.29999999999999999
40
0.32500000000000001
40
0.35000000000000003
40
0.37500000000000006
40
0.40000000000000008
40
0.4250000000000001
40
0.45000000000000012
40
0.47500000000000014
40
0.50000000000000011
40
0.52500000000000013
40
0.55000000000000016
40
0.57500000000000018
40
0.6000000000000002
40
0.62500000000000022
40
0.65000000000000024
40
0.67500000000000027
40
0.70000000000000029
40
0.72500000000000031
40
0.75000000000000033
40
0.77500000000000036
40
0.80000000000000038
40
0.8250000000000004
40
0.85000000000000042
40
0.87500000000000044
40
0.90000000000000047
40
0.92500000000000049
40
0.95000000000000051
40
0.97500000000000053
40
1
40
1
40
1
40
1
40
1
40
1
41
1
41
1
41
1
41
1
41
1
41
1
41
1
41
1
41
1
41
1
41
1
41
1
41
1
41
1
41
1
41
1
41
1
41
1
41
1
41
1
41
1
41
1
41
1
41
1
41
1
41
1
41
1
41
1
41
1
41
1
41
1
41
1
41
1
41
1
41
1
41
1
41
1
41
1
41
1
41
1
41
1
41
1
41
1
41
1
41
1
10
-117.3924068378312
20
43.280918142167351
30
0
10
-117.25914173838245
20
43.573811964096187
30
0
10
-116.98265857105665
20
44.137203106105119
30
0
10
-116.53807398774654
20
44.915099008453154
30
0
10
-115.88552211208521
20
45.817786425979662
30
0
10
-114.97128141365843
20
46.723357536645551
30
0
10
-113.96246669767976
20
47.411908650876413
30
0
10
-112.86724186357523
20
47.895664587509557
30
0
10
-111.70032228534255
20
48.196919980250044
30
0
10
-110.47884133601221
20
48.342551330330352
30
0
10
-109.21592120063519
20
48.35540323758137
30
0
10
-107.91558334750488
20
48.247382627048893
30
0
10
-106.56560715652141
20
48.010140677269902
30
0
10
-105.14466830467647
20
47.622073222764868
30
0
10
-103.63210113734678
20
47.05827957280141
30
0
10
-102.01661752946924
20
46.299363185719933
30
0
10
-100.30580138430949
20
45.341019538464877
30
0
10
-98.534498451720097
20
44.202575268677407
30
0
10
-96.755352284573988
20
42.919162152658394
30
0
10
-95.030122732523751
20
41.534614381507431
30
0
10
-93.420965439733109
20
40.094323415280925
30
0
10
-91.981274257330185
20
38.637741628203763
30
0
10
-90.747761620385688
20
37.191943018810939
30
0
10
-89.729223904926769
20
35.762391104153117
30
0
10
-88.908691349376866
20
34.33504847246121
30
0
10
-88.25470849088255
20
32.886201793635692
30
0
10
-87.730131901616417
20
31.390252685377771
30
0
10
-87.301255799505725
20
29.827687018900431
30
0
10
-86.948353428371917
20
28.194538017387863
30
0
10
-86.670306704544316
20
26.505964232057707
30
0
10
-86.478090862939638
20
24.788795329014974
30
0
10
-86.390778789180317
20
23.0765691382617
30
0
10
-86.430610318729265
20
21.403664531970147
30
0
10
-86.618372371016719
20
19.799693139641242
30
0
10
-86.968926190429642
20
18.284158519000556
30
0
10
-87.492445795325082
20
16.868798591894038
30
0
10
-88.195316403739653
20
15.559501922301909
30
0
10
-89.081114448989226
20
14.358289080448925
30
0
10
-90.151574631065131
20
13.265391007691125
30
0
10
-91.407389407385068
20
12.280786731498274
30
0
10
-92.848492549180634
20
11.404150791335926
30
0
10
-94.149238894106531
20
10.788898983507833
30
0
10
-95.207732424045929
20
10.375706017243182
30
0
10
-95.95021683315808
20
10.121665163743025
30
0
10
-96.330664546749546
20
9.9999999999999947
30
0
0
SPLINE
5
136
100
AcDbEntity
8
0
100
AcDbSpline
70
4
71
5
72
20
73
14
74
0
42
0.000000001
43
0.0000000001
44
0.0000000001
40
0.62268191848876031
40
0.62268191848876031
40
0.62268191848876031
40
0.62268191848876031
40
0.62268191848876031
40
0.62268191848876031
40
0.64000000000000001
40
0.68000000000000005
40
0.72000000000000008
40
0.76000000000000012
40
0.80000000000000016
40
0.84000000000000019
40
0.88000000000000023
40
0.92000000000000026
40
0.93563604497040775
40
0.93563604497040775
40
0.93563604497040775
40
0.93563604497040775
40
0.93563604497040775
40
0.93563604497040775
41
1
41
1
41
1
41
1
41
1
41
1
41
1
41
1
41
1
41
1
41
1
41
1
41
1
41
1
10
122.47372895333984
20
-25.811356585037469
30
0
10
122.38170115409476
20
-26.120472312414648
30
0
10
122.07177917758962
20
-27.147334396557071
30
0
10
121.51570002784081
20
-28.913674930530195
30
0
10
120.66023397097422
20
-31.470296474499477
30
0
10
119.4276123194532
20
-34.872908836047252
30
0
10
117.86904922181984
20
-38.752087505072275
30
0
10
116.14107967346561
20
-42.544619034925518
30
0
10
114.24237534516494
20
-46.116527339009963
30
0
10
112.42462783493448
20
-48.966091912827004
30
0
10
110.9230010422508
20
-50.945280642188877
30
0
10
109.81590094447714
20
-52.22451751509692
30
0
10
109.15556118825755
20
-52.928785065855912
30
0
10
108.96869316530534
20
-53.123550393724237
30
0
0
SPLINE
5
137
100
AcDbEntity
8
0
100
AcDbSpline
70
0
71
3
72
10
73
6
74
0
42
0.000000001
43
0.0000000001
44
0.0000000001
40
0
40
0
40
0
40
0
40
0.50235904292897826
40
0.50235904292897826
40
1.0047180858579572
40
1.0047180858579572
40
1.0047180858579572
40
1.0047180858579572
10
100.05083210411009
20
-57.115072804237748
30
0
10
101.72430106558866
20
-57.055467140858418
30
0
10
103.37059820122099
20
-56.673079748829096
30
0
10
106.42743196364096
20
-55.304879416463336
30
0
10
107.80937224946467
20
-54.331865838556197
30
0
10
108.96869316530822
20
-53.12355039372121
30
0
0
SPLINE
5
138
100
AcDbEntity
8
0
100
AcDbSpline
70
4
71
5
72
49
73
43
74
0
42
0.000000001
43
0.0000000001
44
0.0000000001
40
-0.94754200058920746
40
-0.94754200058920746
40
-0.94754200058920746
40
-0.94754200058920746
40
-0.94754200058920746
40
-0.94754200058920746
40
-0.92500000000000049
40
-0.90000000000000047
40
-0.87500000000000044
40
-0.85000000000000042
40
-0.8250000000000004
40
-0.80000000000000038
40
-0.77500000000000036
40
-0.75000000000000033
40
-0.72500000000000031
40
-0.70000000000000029
40
-0.67500000000000027
40
-0.65000000000000024
40
-0.62500000000000022
40
-0.6000000000000002
40
-0.57500000000000018
40
-0.55000000000000016
40
-0.52500000000000013
40
-0.50000000000000011
40
-0.47500000000000014
40
-0.45000000000000012
40
-0.4250000000000001
40
-0.40000000000000008
40
-0.37500000000000006
40
-0.35000000000000003
40
-0.32500000000000001
40
-0.29999999999999999
40
-0.27499999999999997
40
-0.24999999999999997
40
-0.22499999999999998
40
-0.19999999999999998
40
-0.17499999999999999
40
-0.14999999999999999
40
-0.125
40
-0.10000000000000001
40
-0.075000000000000011
40
-0.050000000000000003
40
-0.025000000000000001
40
0
40
0
40
0
40
0
40
0
40
0
41
1
41
1
41
1
41
1
41
1
41
1
41
1
41
1
41
1
41
1
41
1
41
1
41
1
41
1
41
1
41
1
41
1
41
1
41
1
41
1
41
1
41
1
41
1
41
1
41
1
41
1
41
1
41
1
41
1
41
1
41
1
41
1
41
1
41
1
41
1
41
1
41
1
41
1
41
1
41
1
41
1
41
1
41
1
10
100.05083210414301
20
-57.115072804236576
30
0
10
99.655264264629452
20
-57.129162150396681
30
0
10
98.830822425121582
20
-57.144825053540771
30
0
10
97.60447444773925
20
-57.123308914497343
30
0
10
96.020347448851155
20
-57.00007670403452
30
0
10
94.139130824231103
20
-56.681037126517772
30
0
10
92.332489718876744
20
-56.175753160425977
30
0
10
90.635213575868363
20
-55.478864603248901
30
0
10
89.042967955770948
20
-54.575266869041798
30
0
10
87.551393766044271
20
-53.450940625345169
30
0
10
86.157252660864089
20
-52.09677566285167
30
0
10
84.859628466333845
20
-50.51257706716116
30
0
10
83.661168472646054
20
-48.711245188098225
30
0
10
82.569137886965706
20
-46.722372715713554
30
0
10
81.593728066299903
20
-44.586941319835461
30
0
10
80.746534862858454
20
-42.35259975434473
30
0
10
80.038990338166059
20
-40.068829164162565
30
0
10
79.480766054118689
20
-37.782033234942354
30
0
10
79.078269413472185
20
-35.530998775344919
30
0
10
78.832825532135743
20
-33.341277252895082
30
0
10
78.741150444027113
20
-31.227680979675402
30
0
10
78.796271999834161
20
-29.198337984497954
30
0
10
78.988268110977515
20
-27.258274140393279
30
0
10
79.305061140225575
20
-25.412939669346208
30
0
10
79.733159789353593
20
-23.672298109690256
30
0
10
80.258432724006767
20
-22.05306800057933
30
0
10
80.867046703322174
20
-20.57180060289436
30
0
10
81.546365539895461
20
-19.238581252921406
30
0
10
82.285893893015825
20
-18.051558787415516
30
0
10
83.078125454550786
20
-16.988339315871258
30
0
10
83.919862333567579
20
-16.012344260069582
30
0
10
84.813873366837981
20
-15.087536913934878
30
0
10
85.770331609479186
20
-14.190031694730003
30
0
10
86.808713940069921
20
-13.322302228447931
30
0
10
87.953779945185872
20
-12.50502292604609
30
0
10
89.231084895861898
20
-11.767337892359905
30
0
10
90.66263450199672
20
-11.137674507678764
30
0
10
92.262534516892771
20
-10.634467977621325
30
0
10
94.038786065722192
20
-10.268420723779226
30
0
10
95.603722198951573
20
-10.089307985010089
30
0
10
96.858756309034476
20
-10.019561971198684
30
0
10
97.73155638962524
20
-10.001741216787806
30
0
10
98.176984105449719
20
-10.000000000000002
30
0
0
LINE
5
139
100
AcDbEntity
8
0
100
AcDbLine
10
98.176984105449719
20
-10.000000000000002
30
0
11
110.67474963059738
21
-9.9999999999999982
31
0
0
SPLINE
5
140
100
AcDbEntity
8
0
100
AcDbSpline
70
4
71
5
72
25
73
19
74
0
42
0.000000001
43
0.0000000001
44
0.0000000001
40
0
40
0
40
0
40
0
40
0
40
0
40
0.066666666666666666
40
0.13333333333333333
40
0.20000000000000001
40
0.26666666666666666
40
0.33333333333333331
40
0.39999999999999997
40
0.46666666666666662
40
0.53333333333333333
40
0.59999999999999998
40
0.66666666666666663
40
0.73333333333333328
40
0.79999999999999993
40
0.86666666666666659
40
0.90986834877227907
40
0.90986834877227907
40
0.90986834877227907
40
0.90986834877227907
40
0.90986834877227907
40
0.90986834877227907
41
1
41
1
41
1
41
1
41
1
41
1
41
1
41
1
41
1
41
1
41
1
41
1
41
1
41
1
41
1
41
1
41
1
41
1
41
1
10
110.67474963059738
20
-9.9999999999999982
30
0
10
110.92068144717263
20
-10.014545590998296
30
0
10
111.41506388510351
20
-10.050975615950151
30
0
10
112.16419560486284
20
-10.127635778983672
30
0
10
113.17824981099513
20
-10.274211647583606
30
0
10
114.46881860228612
20
-10.535570394186077
30
0
10
115.7738373568135
20
-10.88455947681628
30
0
10
117.07555333377715
20
-11.337201314577372
30
0
10
118.34195564031788
20
-11.918577099003569
30
0
10
119.5272029470959
20
-12.660988665249652
30
0
10
120.58191918433135
20
-13.59469819227872
30
0
10
121.46201571930305
20
-14.739079350867604
30
0
10
122.13725464085535
20
-16.094320264487465
30
0
10
122.60409504563961
20
-17.627757310966004
30
0
10
122.86536030033045
20
-19.160333640232402
30
0
10
122.96998489930063
20
-20.390141262095085
30
0
10
123.00473675942392
20
-21.274460499265459
30
0
10
123.01278131196035
20
-21.817186479742649
30
0
10
123.01396850494795
20
-22.029184260035102
30
0
0
SPLINE
5
141
100
AcDbEntity
8
0
100
AcDbSpline
70
0
71
3
72
10
73
6
74
0
42
0.000000001
43
0.0000000001
44
0.0000000001
40
0
40
0
40
0
40
0
40
0.19180911864621467
40
0.19180911864621467
40
0.38361823729242883
40
0.38361823729242883
40
0.38361823729242883
40
0.38361823729242883
10
122.47372895333984
20
-25.811356585037473
30
0
10
122.6561626947789
20
-25.198572848539776
30
0
10
122.79314139760336
20
-24.573164515374724
30
0
10
122.97395755270996
20
-23.307285599767631
30
0
10
123.01754890202847
20
-22.668537963776426
30
0
10
123.01396850494781
20
-22.029184260034693
30
0
0
LINE
5
142
100
AcDbEntity
8
0
100
AcDbLine
10
114.67304012046316
20
9.9999999999999982
30
0
11
96.330664546749546
21
9.9999999999999947
31
0
0
SPLINE
5
143
100
AcDbEntity
8
0
100
AcDbSpline
70
4
71
5
72
51
73
45
74
0
42
0.000000001
43
0.0000000001
44
0.0000000001
40
-1
40
-1
40
-1
40
-1
40
-1
40
-1
40
-0.97500000000000053
40
-0.95000000000000051
40
-0.92500000000000049
40
-0.90000000000000047
40
-0.87500000000000044
40
-0.85000000000000042
40
-0.8250000000000004
40
-0.80000000000000038
40
-0.77500000000000036
40
-0.75000000000000033
40
-0.72500000000000031
40
-0.70000000000000029
40
-0.67500000000000027
40
-0.65000000000000024
40
-0.62500000000000022
40
-0.6000000000000002
40
-0.57500000000000018
40
-0.55000000000000016
40
-0.52500000000000013
40
-0.50000000000000011
40
-0.47500000000000014
40
-0.45000000000000012
40
-0.4250000000000001
40
-0.40000000000000008
40
-0.37500000000000006
40
-0.35000000000000003
40
-0.32500000000000001
40
-0.29999999999999999
40
-0.27499999999999997
40
-0.24999999999999997
40
-0.22499999999999998
40
-0.19999999999999998
40
-0.17499999999999999
40
-0.14999999999999999
40
-0.125
40
-0.10000000000000001
40
-0.075000000000000011
40
-0.050000000000000003
40
-0.025000000000000001
40
0
40
0
40
0
40
0
40
0
40
0
41
1
41
1
41
1
41
1
41
1
41
1
41
1
41
1
41
1
41
1
41
1
41
1
41
1
41
1
41
1
41
1
41
1
41
1
41
1
41
1
41
1
41
1
41
1
41
1
41
1
41
1
41
1
41
1
41
1
41
1
41
1
41
1
41
1
41
1
41
1
41
1
41
1
41
1
41
1
41
1
41
1
41
1
41
1
41
1
41
1
10
96.330664546749546
20
9.9999999999999947
30
0
10
95.95021683315808
20
10.121665163743025
30
0
10
95.207732424045929
20
10.375706017243182
30
0
10
94.149238894106531
20
10.788898983507833
30
0
10
92.848492549180634
20
11.404150791335926
30
0
10
91.407389407385068
20
12.280786731498274
30
0
10
90.151574631065131
20
13.265391007691125
30
0
10
89.081114448989226
20
14.358289080448925
30
0
10
88.195316403739653
20
15.559501922301909
30
0
10
87.492445795325082
20
16.868798591894038
30
0
10
86.968926190429642
20
18.284158519000556
30
0
10
86.618372371016719
20
19.799693139641242
30
0
10
86.430610318729265
20
21.403664531970147
30
0
10
86.390778789180317
20
23.0765691382617
30
0
10
86.478090862939638
20
24.788795329014974
30
0
10
86.670306704544316
20
26.505964232057707
30
0
10
86.948353428371917
20
28.194538017387863
30
0
10
87.301255799505725
20
29.827687018900431
30
0
10
87.730131901616417
20
31.390252685377771
30
0
10
88.25470849088255
20
32.886201793635692
30
0
10
88.908691349376866
20
34.33504847246121
30
0
10
89.729223904926769
20
35.762391104153117
30
0
10
90.747761620385688
20
37.191943018810939
30
0
10
91.981274257330185
20
38.637741628203763
30
0
10
93.420965439733109
20
40.094323415280925
30
0
10
95.030122732523751
20
41.534614381507431
30
0
10
96.755352284573988
20
42.919162152658394
30
0
10
98.534498451720097
20
44.202575268677407
30
0
10
100.30580138430949
20
45.341019538464877
30
0
10
102.01661752946924
20
46.299363185719933
30
0
10
103.63210113734678
20
47.05827957280141
30
0
10
105.14466830467647
20
47.622073222764868
30
0
10
106.56560715652141
20
48.010140677269902
30
0
10
107.91558334750488
20
48.247382627048893
30
0
10
109.21592120063519
20
48.35540323758137
30
0
10
110.47884133601221
20
48.342551330330352
30
0
10
111.70032228534255
20
48.196919980250044
30
0
10
112.86724186357523
20
47.895664587509557
30
0
10
113.96246669767976
20
47.411908650876413
30
0
10
114.97128141365843
20
46.723357536645551
30
0
10
115.88552211208521
20
45.817786425979662
30
0
10
116.53807398774654
20
44.915099008453154
30
0
10
116.98265857105665
20
44.137203106105119
30
0
10
117.25914173838245
20
43.573811964096187
30
0
10
117.3924068378312
20
43.280918142167351
30
0
0
SPLINE
5
144
100
AcDbEntity
8
0
100
AcDbSpline
70
4
71
5
72
17
73
11
74
0
42
0.000000001
43
0.0000000001
44
0.0000000001
40
0
40
0
40
0
40
0
40
0
40
0
40
0.040000000000000001
40
0.080000000000000002
40
0.12
40
0.16
40
0.20000000000000001
40
0.20643373331623474
40
0.20643373331623474
40
0.20643373331623474
40
0.20643373331623474
40
0.20643373331623474
40
0.20643373331623474
41
1
41
1
41
1
41
1
41
1
41
1
41
1
41
1
41
1
41
1
41
1
10
117.3924068378312
20
43.280918142167351
30
0
10
117.70831150446696
20
42.582328203429697
30
0
10
118.32586954860449
20
41.14971037427533
30
0
10
119.20945274260052
20
38.894472042951975
30
0
10
120.30183291036523
20
35.674289905429902
30
0
10
121.52266601347277
20
31.29741596891234
30
0
10
122.41574435420154
20
27.376138755717612
30
0
10
123.01830451505124
20
24.24877446816599
30
0
10
123.39385161519121
20
22.052567966976866
30
0
10
123.58494209357558
20
20.858266925155267
30
0
10
123.61121398964113
20
20.692516653117696
30
0
0
SPLINE
5
145
100
AcDbEntity
8
0
100
AcDbSpline
70
0
71
3
72
10
73
6
74
0
42
0.000000001
43
0.0000000001
44
0.0000000001
40
0
40
0
40
0
40
0
40
0.17834945107253092
40
0.17834945107253092
40
0.356698902145062
40
0.356698902145062
40
0.356698902145062
40
0.356698902145062
10
123.37986566947538
20
17.166169091988028
30
0
10
123.54884871928658
20
17.736145234732025
30
0
10
123.65377211592501
20
18.323185754044626
30
0
10
123.73160966196161
20
19.509631544677408
30
0
10
123.7042818364209
20
20.105348491245294
30
0
10
123.61121398964107
20
20.692516653117671
30
0
0
SPLINE
5
146
100
AcDbEntity
8
0
100
AcDbSpline
70
4
71
5
72
19
73
13
74
0
42
0.000000001
43
0.0000000001
44
0.0000000001
40
-0.85487863153994259
40
-0.85487863153994259
40
-0.85487863153994259
40
-0.85487863153994259
40
-0.85487863153994259
40
-0.85487863153994259
40
-0.79999999999999993
40
-0.69999999999999996
40
-0.59999999999999998
40
-0.5
40
-0.40000000000000002
40
-0.30000000000000004
40
-0.20000000000000001
40
-0.16177687751801934
40
-0.16177687751801934
40
-0.16177687751801934
40
-0.16177687751801934
40
-0.16177687751801934
40
-0.16177687751801934
41
1
41
1
41
1
41
1
41
1
41
1
41
1
41
1
41
1
41
1
41
1
41
1
41
1
10
123.3798656694749
20
17.166169091986355
30
0
10
123.3372382876652
20
17.022387862529818
30
0
10
123.21285978955466
20
16.620694490112683
30
0
10
122.98902883837373
20
15.978838296309654
30
0
10
122.63188038252409
20
15.130776134144853
30
0
10
122.08664720243701
20
14.131423686246453
30
0
10
121.36977164208643
20
13.150818202361016
30
0
10
120.52963529628715
20
12.293807639462219
30
0
10
119.68877180202139
20
11.647496456242326
30
0
10
118.97651342577056
20
11.212116402386062
30
0
10
118.44544624058435
20
10.934938854425262
30
0
10
118.1277258633821
20
10.783721027935506
30
0
10
118.03913940834883
20
10.742633012993226
30
0
0
SPLINE
5
147
100
AcDbEntity
8
0
100
AcDbSpline
70
0
71
3
72
10
73
6
74
0
42
0.000000001
43
0.0000000001
44
0.0000000001
40
0
40
0
40
0
40
0
40
0.17388469798375114
40
0.17388469798375114
40
0.34776939596750289
40
0.34776939596750289
40
0.34776939596750289
40
0.34776939596750289
10
114.67304012046316
20
9.9999999999999982
30
0
10
115.252655780409
20
9.9999999999999982
30
0
10
115.83055873037567
20
10.06299143373521
30
0
10
116.9625678125158
20
10.312736685882381
30
0
10
117.51332896389341
20
10.498752530469339
30
0
10
118.0391394083488
20
10.74263301299322
30
0
0
SPLINE
5
148
100
AcDbEntity
8
0
100
AcDbSpline
70
4
71
5
72
86
73
80
74
0
42
0.000000001
43
0.0000000001
44
0.0000000001
40
0
40
0
40
0
40
0
40
0
40
0
40
0.013333333333333334
40
0.026666666666666668
40
0.040000000000000001
40
0.053333333333333337
40
0.066666666666666666
40
0.080000000000000002
40
0.093333333333333338
40
0.10666666666666667
40
0.12000000000000001
40
0.13333333333333333
40
0.14666666666666667
40
0.16
40
0.17333333333333334
40
0.18666666666666668
40
0.20000000000000001
40
0.21333333333333335
40
0.22666666666666668
40
0.24000000000000002
40
0.25333333333333335
40
0.26666666666666666
40
0.27999999999999997
40
0.29333333333333328
40
0.30666666666666659
40
0.3199999999999999
40
0.3333333333333332
40
0.34666666666666651
40
0.35999999999999982
40
0.37333333333333313
40
0.38666666666666644
40
0.39999999999999974
40
0.41333333333333305
40
0.42666666666666636
40
0.43999999999999967
40
0.45333333333333298
40
0.46666666666666629
40
0.47999999999999959
40
0.4933333333333329
40
0.50666666666666627
40
0.51999999999999957
40
0.53333333333333288
40
0.54666666666666619
40
0.5599999999999995
40
0.57333333333333281
40
0.58666666666666611
40
0.59999999999999942
40
0.61333333333333273
40
0.62666666666666604
40
0.63999999999999935
40
0.65333333333333266
40
0.66666666666666596
40
0.67999999999999927
40
0.69333333333333258
40
0.70666666666666589
40
0.7199999999999992
40
0.7333333333333325
40
0.74666666666666581
40
0.75999999999999912
40
0.77333333333333243
40
0.78666666666666574
40
0.79999999999999905
40
0.81333333333333235
40
0.82666666666666566
40
0.83999999999999897
40
0.85333333333333228
40
0.86666666666666559
40
0.87999999999999889
40
0.8933333333333322
40
0.90666666666666551
40
0.91999999999999882
40
0.93333333333333213
40
0.94666666666666544
40
0.95999999999999874
40
0.97333333333333205
40
0.98666666666666536
40
1
40
1
40
1
40
1
40
1
40
1
41
1
41
1
41
1
41
1
41
1
41
1
41
1
41
1
41
1
41
1
41
1
41
1
41
1
41
1
41
1
41
1
41
1
41
1
41
1
41
1
41
1
41
1
41
1
41
1
41
1
41
1
41
1
41
1
41
1
41
1
41
1
41
1
41
1
41
1
41
1
41
1
41
1
41
1
41
1
41
1
41
1
41
1
41
1
41
1
41
1
41
1
41
1
41
1
41
1
41
1
41
1
41
1
41
1
41
1
41
1
41
1
41
1
41
1
41
1
41
1
41
1
41
1
41
1
41
1
41
1
41
1
41
1
41
1
41
1
41
1
41
1
41
1
41
1
41
1
41
1
41
1
41
1
41
1
41
1
41
1
10
0
20
50.833218850654866
30
0
10
-0.96603270110017259
20
50.830441890567684
30
0
10
-2.8882858194787762
20
50.82502200133721
30
0
10
-5.7422353359151943
20
50.817295791916528
30
0
10
-9.5059052107023394
20
50.812910295433447
30
0
10
-14.237052541620642
20
50.847875453461306
30
0
10
-19.108180352319252
20
50.963599451538222
30
0
10
-24.218165913733323
20
51.202745491992417
30
0
10
-29.612138443636262
20
51.601331803439301
30
0
10
-35.264843072776976
20
52.18490575869577
30
0
10
-41.107826387301138
20
52.974897154784259
30
0
10
-47.046837766530636
20
53.992539599419274
30
0
10
-52.98368124769997
20
55.264245355066215
30
0
10
-58.834826215939529
20
56.825243233318076
30
0
10
-64.554890168436671
20
58.726897539078536
30
0
10
-70.129721175832799
20
61.018567844762771
30
0
10
-75.562984129503903
20
63.723923060881432
30
0
10
-80.86500168309226
20
66.819075592362424
30
0
10
-86.040643331542697
20
70.210027756964564
30
0
10
-91.077665576179797
20
73.710032261955703
30
0
10
-95.93475072056853
20
77.017637957530752
30
0
10
-100.55002899707549
20
79.804618889456648
30
0
10
-104.8484412553438
20
81.806044158926483
30
0
10
-108.75153377283215
20
82.904490686748716
30
0
10
-112.18164593458597
20
83.228517094923987
30
0
10
-115.07938703034056
20
83.216749768847421
30
0
10
-117.48574259128233
20
83.240921940566295
30
0
10
-119.68343308782039
20
83.11205450427066
30
0
10
-122.18384397032014
20
81.911381691060527
30
0
10
-125.38104544134272
20
78.773445783621014
30
0
10
-128.79240030102989
20
74.374138492321023
30
0
10
-132.03905273581111
20
69.324178060938891
30
0
10
-134.98550160478112
20
63.87552012365795
30
0
10
-137.59967269386379
20
58.150360139480298
30
0
10
-139.93610412757084
20
52.140498772158537
30
0
10
-142.06985679347017
20
45.801021419727157
30
0
10
-144.04220926025721
20
39.114960178901171
30
0
10
-145.84257526241092
20
32.119608807528657
30
0
10
-147.42934574837057
20
24.88223862901231
30
0
10
-148.73887068321292
20
17.491554681645141
30
0
10
-149.69911201607889
20
10.042924748833881
30
0
10
-150.24177987105267
20
2.6256336717641333
30
0
10
-150.31395162973493
20
-4.6891889878564452
30
0
10
-149.89287775553908
20
-11.864840554842564
30
0
10
-148.98562589030266
20
-18.895294227613729
30
0
10
-147.61921673407844
20
-25.788888877056412
30
0
10
-145.83361124779151
20
-32.555762310001029
30
0
10
-143.67367305412199
20
-39.193936814294034
30
0
10
-141.18127344685581
20
-45.675527586618841
30
0
10
-138.38806244447906
20
-51.933922632171218
30
0
10
-135.30601584550314
20
-57.847694484575889
30
0
10
-131.94415559466702
20
-63.263746068898719
30
0
10
-128.32745877494665
20
-68.024453861935285
30
0
10
-124.51630396002811
20
-71.993934879573359
30
0
10
-120.62278778873613
20
-75.083435086496962
30
0
10
-116.83547733836527
20
-77.280169369916095
30
0
10
-113.4189526868599
20
-78.665736161475849
30
0
10
-110.5358056904966
20
-79.370010780753034
30
0
10
-108.1077766096894
20
-79.53413945383258
30
0
10
-105.61450151936462
20
-79.265665659265181
30
0
10
-102.35212235437702
20
-78.653288278282673
30
0
10
-98.345424764553968
20
-77.888897292116923
30
0
10
-94.222592676875479
20
-77.205260321289714
30
0
10
-89.894895847474956
20
-76.65131733631641
30
0
10
-85.189867799296465
20
-76.218742244770226
30
0
10
-79.823848285290524
20
-75.848970228210987
30
0
10
-73.682588149501157
20
-75.497053060757779
30
0
10
-66.825421841414141
20
-75.139985072422519
30
0
10
-59.42932637210842
20
-74.770249990784649
30
0
10
-51.744022819395752
20
-74.39255040205316
30
0
10
-44.043566579479347
20
-74.019343184045027
30
0
10
-36.578209380957297
20
-73.666818648637189
30
0
10
-29.529113657159879
20
-73.35087465253946
30
0
10
-22.953892878706142
20
-73.082618974355881
30
0
10
-16.81337085858555
20
-72.86873796267237
30
0
10
-11.012086505440122
20
-72.712709709070296
30
0
10
-6.5495364897954431
20
-72.63511438879442
30
0
10
-3.2583882092638623
20
-72.603447579740418
30
0
10
-1.0830092137931355
20
-72.594079040009362
30
0
10
0
20
-72.592330457095514
30
0
0
SPLINE
5
149
100
AcDbEntity
8
0
100
AcDbSpline
70
4
71
5
72
86
73
80
74
0
42
0.000000001
43
0.0000000001
44
0.0000000001
40
-1
40
-1
40
-1
40
-1
40
-1
40
-1
40
-0.98666666666666536
40
-0.97333333333333205
40
-0.95999999999999874
40
-0.94666666666666544
40
-0.93333333333333213
40
-0.91999999999999882
40
-0.90666666666666551
40
-0.8933333333333322
40
-0.87999999999999889
40
-0.86666666666666559
40
-0.85333333333333228
40
-0.83999999999999897
40
-0.82666666666666566
40
-0.81333333333333235
40
-0.79999999999999905
40
-0.78666666666666574
40
-0.77333333333333243
40
-0.75999999999999912
40
-0.74666666666666581
40
-0.7333333333333325
40
-0.7199999999999992
40
-0.70666666666666589
40
-0.69333333333333258
40
-0.67999999999999927
40
-0.66666666666666596
40
-0.65333333333333266
40
-0.63999999999999935
40
-0.62666666666666604
40
-0.61333333333333273
40
-0.59999999999999942
40
-0.58666666666666611
40
-0.57333333333333281
40
-0.5599999999999995
40
-0.54666666666666619
40
-0.53333333333333288
40
-0.51999999999999957
40
-0.50666666666666627
40
-0.4933333333333329
40
-0.47999999999999959
40
-0.46666666666666629
40
-0.45333333333333298
40
-0.43999999999999967
40
-0.42666666666666636
40
-0.41333333333333305
40
-0.39999999999999974
40
-0.38666666666666644
40
-0.37333333333333313
40
-0.35999999999999982
40
-0.34666666666666651
40
-0.3333333333333332
40
-0.3199999999999999
40
-0.30666666666666659
40
-0.29333333333333328
40
-0.27999999999999997
40
-0.26666666666666666
40
-0.25333333333333335
40
-0.24000000000000002
40
-0.22666666666666668
40
-0.21333333333333335
40
-0.20000000000000001
40
-0.18666666666666668
40
-0.17333333333333334
40
-0.16
40
-0.14666666666666667
40
-0.13333333333333333
40
-0.12000000000000001
40
-0.10666666666666667
40
-0.093333333333333338
40
-0.080000000000000002
40
-0.066666666666666666
40
-0.053333333333333337
40
-0.040000000000000001
40
-0.026666666666666668
40
-0.013333333333333334
40
0
40
0
40
0
40
0
40
0
40
0
41
1
41
1
41
1
41
1
41
1
41
1
41
1
41
1
41
1
41
1
41
1
41
1
41
1
41
1
41
1
41
1
41
1
41
1
41
1
41
1
41
1
41
1
41
1
41
1
41
1
41
1
41
1
41
1
41
1
41
1
41
1
41
1
41
1
41
1
41
1
41
1
41
1
41
1
41
1
41
1
41
1
41
1
41
1
41
1
41
1
41
1
41
1
41
1
41
1
41
1
41
1
41
1
41
1
41
1
41
1
41
1
41
1
41
1
41
1
41
1
41
1
41
1
41
1
41
1
41
1
41
1
41
1
41
1
41
1
41
1
41
1
41
1
41
1
41
1
41
1
41
1
41
1
41
1
41
1
41
1
10
0
20
-72.592330457095514
30
0
10
1.0830092137931355
20
-72.594079040009362
30
0
10
3.2583882092638623
20
-72.603447579740418
30
0
10
6.5495364897954431
20
-72.63511438879442
30
0
10
11.012086505440122
20
-72.712709709070296
30
0
10
16.81337085858555
20
-72.86873796267237
30
0
10
22.953892878706142
20
-73.082618974355881
30
0
10
29.529113657159879
20
-73.35087465253946
30
0
10
36.578209380957297
20
-73.666818648637189
30
0
10
44.043566579479347
20
-74.019343184045027
30
0
10
51.744022819395752
20
-74.39255040205316
30
0
10
59.42932637210842
20
-74.770249990784649
30
0
10
66.825421841414141
20
-75.139985072422519
30
0
10
73.682588149501157
20
-75.497053060757779
30
0
10
79.823848285290524
20
-75.848970228210987
30
0
10
85.189867799296465
20
-76.218742244770226
30
0
10
89.894895847474956
20
-76.65131733631641
30
0
10
94.222592676875479
20
-77.205260321289714
30
0
10
98.345424764553968
20
-77.888897292116923
30
0
10
102.35212235437702
20
-78.653288278282673
30
0
10
105.61450151936462
20
-79.265665659265181
30
0
10
108.1077766096894
20
-79.53413945383258
30
0
10
110.5358056904966
20
-79.370010780753034
30
0
10
113.4189526868599
20
-78.665736161475849
30
0
10
116.83547733836527
20
-77.280169369916095
30
0
10
120.62278778873613
20
-75.083435086496962
30
0
10
124.51630396002811
20
-71.993934879573359
30
0
10
128.32745877494665
20
-68.024453861935285
30
0
10
131.94415559466702
20
-63.263746068898719
30
0
10
135.30601584550314
20
-57.847694484575889
30
0
10
138.38806244447906
20
-51.933922632171218
30
0
10
141.18127344685581
20
-45.675527586618841
30
0
10
143.67367305412199
20
-39.193936814294034
30
0
10
145.83361124779151
20
-32.555762310001029
30
0
10
147.61921673407844
20
-25.788888877056412
30
0
10
148.98562589030266
20
-18.895294227613729
30
0
10
149.89287775553908
20
-11.864840554842564
30
0
10
150.31395162973493
20
-4.6891889878564452
30
0
10
150.24177987105267
20
2.6256336717641333
30
0
10
149.69911201607889
20
10.042924748833881
30
0
10
148.73887068321292
20
17.491554681645141
30
0
10
147.42934574837057
20
24.88223862901231
30
0
10
145.84257526241092
20
32.119608807528657
30
0
10
144.04220926025721
20
39.114960178901171
30
0
10
142.06985679347017
20
45.801021419727157
30
0
10
139.93610412757084
20
52.140498772158537
30
0
10
137.59967269386379
20
58.150360139480298
30
0
10
134.98550160478112
20
63.87552012365795
30
0
10
132.03905273581111
20
69.324178060938891
30
0
10
128.79240030102989
20
74.374138492321023
30
0
10
125.38104544134272
20
78.773445783621014
30
0
10
122.18384397032014
20
81.911381691060527
30
0
10
119.68343308782039
20
83.11205450427066
30
0
10
117.48574259128233
20
83.240921940566295
30
0
10
115.07938703034056
20
83.216749768847421
30
0
10
112.18164593458597
20
83.228517094923987
30
0
10
108.75153377283215
20
82.904490686748716
30
0
10
104.8484412553438
20
81.806044158926483
30
0
10
100.55002899707549
20
79.804618889456648
30
0
10
95.93475072056853
20
77.017637957530752
30
0
10
91.077665576179797
20
73.710032261955703
30
0
10
86.040643331542697
20
70.210027756964564
30
0
10
80.86500168309226
20
66.819075592362424
30
0
10
75.562984129503903
20
63.723923060881432
30
0
10
70.129721175832799
20
61.018567844762771
30
0
10
64.554890168436671
20
58.726897539078536
30
0
10
58.834826215939529
20
56.825243233318076
30
0
10
52.98368124769997
20
55.264245355066215
30
0
10
47.046837766530636
20
53.992539599419274
30
0
10
41.107826387301138
20
52.974897154784259
30
0
10
35.264843072776976
20
52.18490575869577
30
0
10
29.612138443636262
20
51.601331803439301
30
0
10
24.218165913733323
20
51.202745491992417
30
0
10
19.108180352319252
20
50.963599451538222
30
0
10
14.237052541620642
20
50.847875453461306
30
0
10
9.5059052107023394
20
50.812910295433447
30
0
10
5.7422353359151943
20
50.817295791916528
30
0
10
2.8882858194787762
20
50.82502200133721
30
0
10
0.96603270110017259
20
50.830441890567684
30
0
10
0
20
50.833218850654866
30
0
0
ENDSEC
0
SECTION
2
OBJECTS
0
DICTIONARY
5
C
100
AcDbDictionary
3
ACAD_GROUP
350
D
3
ACAD_MLINESTYLE
350
17
0
DICTIONARY
5
D
100
AcDbDictionary
0
DICTIONARY
5
1A
330
C
100
AcDbDictionary
0
DICTIONARY
5
17
100
AcDbDictionary
0
ENDSEC
0
EOF
